<svg width="268" height="37" viewBox="0 0 268 37" fill="none" xmlns="http://www.w3.org/2000/svg">
<g filter="url(#filter0_d)">
<path d="M22.6245 25.8535C21.6635 26.9785 20.2631 27.8516 18.4233 28.4727C16.5834 29.082 14.5444 29.3691 12.3061 29.334C10.1616 29.3105 8.35101 28.7715 6.87445 27.7168C5.39789 26.6621 4.3432 25.1914 3.71039 23.3047C3.07758 21.418 2.90765 19.291 3.20062 16.9238L3.34125 15.8691C3.88031 11.8965 5.27484 8.75 7.52484 6.42969C9.78656 4.10938 12.5522 2.97852 15.8217 3.03711C18.6811 3.08398 20.8784 3.85156 22.4135 5.33984C23.9487 6.82813 24.8041 8.97852 24.9799 11.791L19.2143 11.7734C19.1323 10.4023 18.7924 9.40039 18.1948 8.76758C17.6088 8.13477 16.7709 7.80078 15.6811 7.76562C14.0639 7.70703 12.728 8.3457 11.6733 9.68164C10.6186 11.0059 9.89789 12.9043 9.51117 15.377C9.18304 17.4863 9.06586 19.127 9.15961 20.2988C9.33539 23.123 10.6069 24.5527 12.9741 24.5879C14.4037 24.6113 15.6577 24.2656 16.7358 23.5508L17.5268 19.5605H13.3608L14.0991 15.3242H24.2768L22.6245 25.8535ZM42.0891 15.3418C41.468 15.248 40.8703 15.1895 40.2961 15.166C38.5617 15.1191 37.2375 15.7168 36.3234 16.959L34.1789 29H28.3957L31.7004 9.98047L37.0969 9.96289L36.6574 12.459C37.8996 10.5371 39.3644 9.57617 41.0519 9.57617C41.5324 9.57617 42.1301 9.6582 42.8449 9.82227L42.0891 15.3418ZM55.2255 29C55.0615 28.543 54.9795 27.9688 54.9795 27.2773C53.6787 28.707 52.1259 29.3984 50.3212 29.3516C48.6689 29.3281 47.2978 28.7773 46.208 27.6992C45.1181 26.6211 44.6084 25.3145 44.6787 23.7793C44.7373 21.7168 45.5986 20.1348 47.2627 19.0332C48.9267 17.9199 51.2002 17.3633 54.083 17.3633L56.0166 17.3984L56.2275 16.3262L56.2978 15.3945C56.2509 14.3281 55.7177 13.7773 54.6982 13.7422C53.4326 13.7188 52.6533 14.416 52.3603 15.834L46.5595 15.8516C46.6181 14.5742 47.0341 13.4668 47.8076 12.5293C48.581 11.5801 49.6298 10.8535 50.9541 10.3496C52.29 9.83398 53.708 9.59375 55.208 9.62891C56.6494 9.66406 57.9091 9.96875 58.9873 10.543C60.0771 11.1055 60.8916 11.8965 61.4306 12.916C61.9697 13.9238 62.1748 15.0898 62.0459 16.4141L60.622 25.3613L60.5341 26.4512C60.4873 27.3184 60.5986 28.0566 60.8681 28.666L60.8505 29H55.2255ZM51.9209 25.168C53.1045 25.2148 54.1416 24.6934 55.0322 23.6035L55.6123 20.5449L54.1181 20.5273C53.1923 20.5508 52.3955 20.8262 51.7275 21.3535C51.0595 21.8691 50.667 22.5781 50.5498 23.4805C50.4912 23.9609 50.5791 24.3594 50.8134 24.6758C51.0595 24.9805 51.4287 25.1445 51.9209 25.168ZM67.7116 29L70.2956 14.0938H67.6237L68.3269 9.98047L70.9987 9.96289L71.2273 8.29297C71.5202 6.26563 72.3288 4.6543 73.653 3.45898C75.071 2.19336 76.9167 1.57227 79.1902 1.5957C79.7761 1.5957 80.7312 1.72461 82.0554 1.98242L81.6159 6.35938C81.0769 6.21875 80.6198 6.14844 80.2448 6.14844C79.3894 6.14844 78.6804 6.34766 78.1179 6.74609C77.5671 7.13281 77.2155 7.69531 77.0632 8.43359L76.7995 9.98047H80.403L79.6999 14.0938H76.0964L73.5124 29H67.7116ZM83.7837 29L86.3677 14.0938H83.6958L84.3989 9.98047L87.0708 9.96289L87.2993 8.29297C87.5923 6.26563 88.4009 4.6543 89.7251 3.45898C91.143 2.19336 92.9887 1.57227 95.2622 1.5957C95.8481 1.5957 96.8032 1.72461 98.1274 1.98242L97.688 6.35938C97.1489 6.21875 96.6919 6.14844 96.3169 6.14844C95.4614 6.14844 94.7524 6.34766 94.1899 6.74609C93.6391 7.13281 93.2876 7.69531 93.1352 8.43359L92.8716 9.98047H96.4751L95.7719 14.0938H92.1684L89.5844 29H83.7837Z" fill="#291B1B"/>
<path d="M109.313 29C109.149 28.543 109.067 27.9688 109.067 27.2773C107.766 28.707 106.213 29.3984 104.408 29.3516C102.756 29.3281 101.385 28.7773 100.295 27.6992C99.2053 26.6211 98.6955 25.3145 98.7659 23.7793C98.8244 21.7168 99.6858 20.1348 101.35 19.0332C103.014 17.9199 105.287 17.3633 108.17 17.3633L110.104 17.3984L110.315 16.3262L110.385 15.3945C110.338 14.3281 109.805 13.7773 108.785 13.7422C107.52 13.7188 106.74 14.416 106.447 15.834L100.647 15.8516C100.705 14.5742 101.121 13.4668 101.895 12.5293C102.668 11.5801 103.717 10.8535 105.041 10.3496C106.377 9.83398 107.795 9.59375 109.295 9.62891C110.737 9.66406 111.996 9.96875 113.074 10.543C114.164 11.1055 114.979 11.8965 115.518 12.916C116.057 13.9238 116.262 15.0898 116.133 16.4141L114.709 25.3613L114.621 26.4512C114.574 27.3184 114.686 28.0566 114.955 28.666L114.938 29H109.313ZM106.008 25.168C107.192 25.2148 108.229 24.6934 109.119 23.6035L109.699 20.5449L108.205 20.5273C107.28 20.5508 106.483 20.8262 105.815 21.3535C105.147 21.8691 104.754 22.5781 104.637 23.4805C104.578 23.9609 104.666 24.3594 104.901 24.6758C105.147 24.9805 105.516 25.1445 106.008 25.168ZM129.111 9.96289L128.707 12.248C130.23 10.4434 132.064 9.56445 134.209 9.61133C135.967 9.64648 137.273 10.3027 138.129 11.5801C138.996 12.8457 139.312 14.6621 139.078 17.0293L137.074 29H131.273L133.295 16.9941C133.342 16.584 133.354 16.209 133.33 15.8691C133.248 14.7559 132.592 14.1992 131.361 14.1992C130.342 14.1758 129.41 14.627 128.566 15.5527L126.193 29H120.41L123.715 9.98047L129.111 9.96289ZM144.586 19.4551C144.949 16.4551 145.863 14.0527 147.328 12.248C148.793 10.4434 150.703 9.57031 153.058 9.62891C154.676 9.67578 156.017 10.3555 157.084 11.668L158.929 2H164.73L160.054 29H154.904L155.15 26.9434C153.732 28.6074 152.156 29.416 150.422 29.3691C148.594 29.3457 147.158 28.6719 146.115 27.3477C145.084 26.0117 144.533 24.2246 144.463 21.9863C144.439 21.248 144.463 20.5273 144.533 19.8242L144.586 19.4551ZM150.351 19.8418C150.258 20.5918 150.217 21.248 150.228 21.8105C150.228 23.7559 150.885 24.7461 152.197 24.7812C153.334 24.8164 154.347 24.2715 155.238 23.1465L156.539 15.8516C156.152 14.7734 155.379 14.2168 154.219 14.1816C153.14 14.1582 152.267 14.627 151.599 15.5879C150.943 16.5371 150.527 17.9551 150.351 19.8418Z" fill="#E5E5E5"/>
<path d="M181.031 22.0742C181.289 20.75 180.574 19.7246 178.886 18.998L176.003 17.8027C171.96 15.9863 170.039 13.5137 170.238 10.3848C170.32 8.95508 170.812 7.68359 171.714 6.57031C172.617 5.44531 173.865 4.57227 175.459 3.95117C177.052 3.33008 178.792 3.03125 180.679 3.05469C183.21 3.10156 185.244 3.83984 186.779 5.26953C188.326 6.69922 189.087 8.61523 189.064 11.0176H183.087C183.123 10.0332 182.912 9.24805 182.455 8.66211C182.009 8.06445 181.271 7.75391 180.24 7.73047C179.232 7.70703 178.341 7.94141 177.568 8.43359C176.794 8.92578 176.337 9.58789 176.197 10.4199C175.974 11.5918 176.841 12.5527 178.798 13.3027C180.767 14.0527 182.197 14.6973 183.087 15.2363C185.888 16.9121 187.201 19.1738 187.025 22.0215C186.931 23.498 186.457 24.793 185.601 25.9062C184.746 27.0195 183.556 27.8809 182.033 28.4902C180.521 29.0996 178.822 29.3926 176.935 29.3691C175.552 29.3457 174.269 29.1289 173.085 28.7188C171.902 28.3086 170.888 27.7109 170.044 26.9258C168.334 25.3438 167.513 23.2637 167.584 20.6855L173.613 20.7031C173.542 22.0156 173.794 23.0117 174.369 23.6914C174.943 24.3594 175.91 24.6934 177.269 24.6934C178.277 24.6934 179.115 24.4648 179.783 24.0078C180.462 23.5391 180.878 22.8945 181.031 22.0742ZM202.833 5.25195L202.007 9.98047H205.048L204.327 14.0938H201.286L199.81 22.8301C199.728 23.4277 199.763 23.8789 199.915 24.1836C200.079 24.4883 200.478 24.6523 201.111 24.6758C201.357 24.6875 201.861 24.6582 202.622 24.5879L202.2 28.877C201.228 29.1934 200.191 29.3398 199.089 29.3164C197.296 29.293 195.954 28.7656 195.064 27.7344C194.173 26.7031 193.81 25.3027 193.974 23.5332L195.521 14.0938H193.165L193.868 9.98047H196.224L197.05 5.25195H202.833ZM219.151 26.9258C217.733 28.6016 216.022 29.416 214.019 29.3691C212.155 29.3457 210.749 28.6953 209.8 27.418C208.862 26.1406 208.499 24.4297 208.71 22.2852L210.767 9.98047H216.55L214.458 22.3555C214.423 22.6953 214.423 23.0059 214.458 23.2871C214.54 24.248 215.108 24.7461 216.163 24.7812C217.382 24.8281 218.419 24.3477 219.274 23.3398L221.63 9.98047H227.448L224.144 29H218.765L219.151 26.9258ZM231.761 29L234.345 14.0938H231.673L232.376 9.98047L235.048 9.96289L235.276 8.29297C235.569 6.26563 236.378 4.6543 237.702 3.45898C239.12 2.19336 240.966 1.57227 243.239 1.5957C243.825 1.5957 244.78 1.72461 246.104 1.98242L245.665 6.35938C245.126 6.21875 244.669 6.14844 244.294 6.14844C243.438 6.14844 242.729 6.34766 242.167 6.74609C241.616 7.13281 241.264 7.69531 241.112 8.43359L240.848 9.98047H244.452L243.749 14.0938H240.145L237.561 29H231.761ZM247.833 29L250.417 14.0938H247.745L248.448 9.98047L251.12 9.96289L251.348 8.29297C251.641 6.26563 252.45 4.6543 253.774 3.45898C255.192 2.19336 257.038 1.57227 259.311 1.5957C259.897 1.5957 260.852 1.72461 262.176 1.98242L261.737 6.35938C261.198 6.21875 260.741 6.14844 260.366 6.14844C259.51 6.14844 258.801 6.34766 258.239 6.74609C257.688 7.13281 257.336 7.69531 257.184 8.43359L256.92 9.98047H260.524L259.821 14.0938H256.217L253.633 29H247.833Z" fill="#4EAAFF"/>
</g>
<defs>
<filter id="filter0_d" x="0.0615845" y="0.595093" width="267.115" height="35.776" filterUnits="userSpaceOnUse" color-interpolation-filters="sRGB">
<feFlood flood-opacity="0" result="BackgroundImageFix"/>
<feColorMatrix in="SourceAlpha" type="matrix" values="0 0 0 0 0 0 0 0 0 0 0 0 0 0 0 0 0 0 127 0" result="hardAlpha"/>
<feOffset dx="1" dy="3"/>
<feGaussianBlur stdDeviation="2"/>
<feColorMatrix type="matrix" values="0 0 0 0 0.595833 0 0 0 0 0.593351 0 0 0 0 0.593351 0 0 0 1 0"/>
<feBlend mode="normal" in2="BackgroundImageFix" result="effect1_dropShadow"/>
<feBlend mode="normal" in="SourceGraphic" in2="effect1_dropShadow" result="shape"/>
</filter>
</defs>
</svg>
