<svg width="270" height="37" viewBox="0 0 270 37" fill="none" xmlns="http://www.w3.org/2000/svg">
<g filter="url(#filter0_d)">
<path d="M23.5402 23.8535C22.5793 24.9785 21.1789 25.8516 19.3391 26.4727C17.4992 27.082 15.4602 27.3691 13.2219 27.334C11.0773 27.3105 9.2668 26.7715 7.79024 25.7168C6.31367 24.6621 5.25899 23.1914 4.62617 21.3047C3.99336 19.418 3.82344 17.291 4.11641 14.9238L4.25703 13.8691C4.7961 9.89648 6.19063 6.75 8.44063 4.42969C10.7023 2.10938 13.468 0.978516 16.7375 1.03711C19.5969 1.08398 21.7941 1.85156 23.3293 3.33984C24.8645 4.82813 25.7199 6.97852 25.8957 9.79102L20.1301 9.77344C20.048 8.40234 19.7082 7.40039 19.1105 6.76758C18.5246 6.13477 17.6867 5.80078 16.5969 5.76562C14.9797 5.70703 13.6438 6.3457 12.5891 7.68164C11.5344 9.00586 10.8137 10.9043 10.427 13.377C10.0988 15.4863 9.98164 17.127 10.0754 18.2988C10.2512 21.123 11.5227 22.5527 13.8898 22.5879C15.3195 22.6113 16.5734 22.2656 17.6516 21.5508L18.4426 17.5605H14.2766L15.0148 13.3242H25.1926L23.5402 23.8535ZM40.4736 17.9648H37.1338L35.5517 27H29.54L33.9697 1.40625L43.0048 1.42383C45.8994 1.42383 48.1259 2.10352 49.6845 3.46289C51.2548 4.81055 51.958 6.65625 51.7939 9C51.665 10.8516 51.1318 12.3867 50.1943 13.6055C49.2568 14.8125 47.9443 15.7676 46.2568 16.4707L49.7021 26.7012V27H43.2861L40.4736 17.9648ZM37.9423 13.2012L41.458 13.2363C42.4189 13.2363 43.2509 13.002 43.9541 12.5332C44.6689 12.0645 45.1787 11.4258 45.4834 10.6172C45.788 9.79688 45.8759 9.00586 45.747 8.24414C45.5127 6.94336 44.6806 6.25781 43.2509 6.1875L39.1728 6.16992L37.9423 13.2012ZM70.7663 22.2188H62.5925L60.3249 27H53.698L67.2507 1.40625H72.9109L77.6394 27H71.3816L70.7663 22.2188ZM64.8425 17.4551H70.1511L69.0261 8.63086L64.8425 17.4551ZM100.391 16.8047H90.7407L88.9653 27H82.9536L87.3833 1.40625H104.03L103.204 6.16992H92.5864L91.5669 12.0586H101.217L100.391 16.8047ZM122.897 16.8047H113.246L111.471 27H105.459L109.889 1.40625H126.535L125.709 6.16992H115.092L114.073 12.0586H123.723L122.897 16.8047Z" fill="#291B1B"/>
<path d="M129.424 29.1973H125.117L138.406 1.40625H142.73L129.424 29.1973Z" fill="#E9F2FA"/>
<path d="M157.713 20.0742C157.97 18.75 157.256 17.7246 155.568 16.998L152.685 15.8027C148.642 13.9863 146.72 11.5137 146.92 8.38477C147.002 6.95508 147.494 5.68359 148.396 4.57031C149.299 3.44531 150.547 2.57227 152.14 1.95117C153.734 1.33008 155.474 1.03125 157.361 1.05469C159.892 1.10156 161.926 1.83984 163.461 3.26953C165.008 4.69922 165.769 6.61523 165.746 9.01758H159.769C159.804 8.0332 159.594 7.24805 159.136 6.66211C158.691 6.06445 157.953 5.75391 156.922 5.73047C155.914 5.70703 155.023 5.94141 154.25 6.43359C153.476 6.92578 153.019 7.58789 152.879 8.41992C152.656 9.5918 153.523 10.5527 155.48 11.3027C157.449 12.0527 158.879 12.6973 159.769 13.2363C162.57 14.9121 163.883 17.1738 163.707 20.0215C163.613 21.498 163.138 22.793 162.283 23.9062C161.428 25.0195 160.238 25.8809 158.715 26.4902C157.203 27.0996 155.504 27.3926 153.617 27.3691C152.234 27.3457 150.951 27.1289 149.767 26.7188C148.584 26.3086 147.57 25.7109 146.726 24.9258C145.015 23.3438 144.195 21.2637 144.265 18.6855L150.295 18.7031C150.224 20.0156 150.476 21.0117 151.051 21.6914C151.625 22.3594 152.592 22.6934 153.951 22.6934C154.959 22.6934 155.797 22.4648 156.465 22.0078C157.144 21.5391 157.56 20.8945 157.713 20.0742ZM192.066 6.16992H184.613L181.009 27H174.98L178.601 6.16992H171.271L172.115 1.40625H192.892L192.066 6.16992ZM218.368 1.40625L215.521 18.1055C215.111 21 213.915 23.2793 211.935 24.9434C209.966 26.6074 207.482 27.416 204.482 27.3691C202.618 27.334 201.001 26.9355 199.63 26.1738C198.259 25.4004 197.245 24.3164 196.589 22.9219C195.945 21.5156 195.728 19.916 195.939 18.123L198.786 1.40625H204.833L202.003 18.1406C201.933 18.7266 201.921 19.2832 201.968 19.8105C202.027 20.6777 202.296 21.3516 202.777 21.832C203.269 22.3125 203.96 22.5703 204.851 22.6055C207.429 22.6875 208.982 21.1934 209.509 18.123L212.357 1.40625H218.368ZM238.413 16.8047H228.763L226.987 27H220.976L225.405 1.40625H242.052L241.226 6.16992H230.608L229.589 12.0586H239.239L238.413 16.8047ZM260.919 16.8047H251.268L249.493 27H243.481L247.911 1.40625H264.557L263.731 6.16992H253.114L252.095 12.0586H261.745L260.919 16.8047Z" fill="#D4380D"/>
</g>
<defs>
<filter id="filter0_d" x="0.977295" y="0.0349121" width="268.58" height="36.1624" filterUnits="userSpaceOnUse" color-interpolation-filters="sRGB">
<feFlood flood-opacity="0" result="BackgroundImageFix"/>
<feColorMatrix in="SourceAlpha" type="matrix" values="0 0 0 0 0 0 0 0 0 0 0 0 0 0 0 0 0 0 127 0" result="hardAlpha"/>
<feOffset dx="1" dy="3"/>
<feGaussianBlur stdDeviation="2"/>
<feColorMatrix type="matrix" values="0 0 0 0 0.595833 0 0 0 0 0.593351 0 0 0 0 0.593351 0 0 0 1 0"/>
<feBlend mode="normal" in2="BackgroundImageFix" result="effect1_dropShadow"/>
<feBlend mode="normal" in="SourceGraphic" in2="effect1_dropShadow" result="shape"/>
</filter>
</defs>
</svg>
